name C:\Users\u0150099\Documents\master_thesis\3dpredictsim\Results\debug\Fal_s1_mtjc2_sc_cspx10_oy2_ATx70_MTc2_MTPm_k1_d01_MTJm_nl_MG_exp5_table_d01_PF_Natali2010_x3_ls146_ig21_wAk4e+04_wa2e+03_wpM1e+03.mot
datacolumns 128
datarows 4
range 0.00000000 0.03203513
endheader
time	pelvis_tilt	pelvis_list	pelvis_rotation	pelvis_tx	pelvis_ty	pelvis_tz	hip_flexion_l	hip_adduction_l	hip_rotation_l	hip_flexion_r	hip_adduction_r	hip_rotation_r	knee_angle_l	knee_angle_r	ankle_angle_l	ankle_angle_r	subtalar_angle_l	subtalar_angle_r	mtj_angle_l	mtj_angle_r	mtp_angle_l	mtp_angle_r	lumbar_extension	lumbar_bending	lumbar_rotation	arm_flex_l	arm_add_l	arm_rot_l	arm_flex_r	arm_add_r	arm_rot_r	elbow_flex_l	elbow_flex_r	pro_sup_l	pro_sup_r	glut_med1_l/activation	glut_med2_l/activation	glut_med3_l/activation	glut_min1_l/activation	glut_min2_l/activation	glut_min3_l/activation	semimem_l/activation	semiten_l/activation	bifemlh_l/activation	bifemsh_l/activation	sar_l/activation	add_long_l/activation	add_brev_l/activation	add_mag1_l/activation	add_mag2_l/activation	add_mag3_l/activation	tfl_l/activation	pect_l/activation	grac_l/activation	glut_max1_l/activation	glut_max2_l/activation	glut_max3_l/activation	iliacus_l/activation	psoas_l/activation	quad_fem_l/activation	gem_l/activation	peri_l/activation	rect_fem_l/activation	vas_med_l/activation	vas_int_l/activation	vas_lat_l/activation	med_gas_l/activation	lat_gas_l/activation	soleus_l/activation	tib_post_l/activation	flex_dig_l/activation	flex_hal_l/activation	tib_ant_l/activation	per_brev_l/activation	per_long_l/activation	per_tert_l/activation	ext_dig_l/activation	ext_hal_l/activation	ercspn_l/activation	intobl_l/activation	extobl_l/activation	glut_med1_r/activation	glut_med2_r/activation	glut_med3_r/activation	glut_min1_r/activation	glut_min2_r/activation	glut_min3_r/activation	semimem_r/activation	semiten_r/activation	bifemlh_r/activation	bifemsh_r/activation	sar_r/activation	add_long_r/activation	add_brev_r/activation	add_mag1_r/activation	add_mag2_r/activation	add_mag3_r/activation	tfl_r/activation	pect_r/activation	grac_r/activation	glut_max1_r/activation	glut_max2_r/activation	glut_max3_r/activation	iliacus_r/activation	psoas_r/activation	quad_fem_r/activation	gem_r/activation	peri_r/activation	rect_fem_r/activation	vas_med_r/activation	vas_int_r/activation	vas_lat_r/activation	med_gas_r/activation	lat_gas_r/activation	soleus_r/activation	tib_post_r/activation	flex_dig_r/activation	flex_hal_r/activation	tib_ant_r/activation	per_brev_r/activation	per_long_r/activation	per_tert_r/activation	ext_dig_r/activation	ext_hal_r/activation	ercspn_r/activation	intobl_r/activation	extobl_r/activation	
          0.00000000	         -2.92727615	         -1.48606030	          3.14892017	          0.00000000	          0.90900898	         -0.00326045	        -15.53733476	          1.99388799	          9.94393779	         29.08180489	          3.12020706	         -2.04888185	        -12.52977665	        -10.85269996	          6.59756400	          8.22364597	          0.81724282	         -0.79161072	         -1.76334517	          2.55845098	         17.83401525	         -6.95725135	         -3.96471540	          0.69620394	         -2.01486564	          4.36048171	        -13.66361497	         19.38700753	         -4.69191481	        -13.48193037	          5.80316398	         33.65207819	         25.42968541	         86.51662706	         86.51662706	          0.37136801	          0.05889834	          0.05000015	          0.54124195	          0.17318512	          0.07206808	          0.05000577	          0.05000070	          0.05000049	          0.06235569	          0.08567778	          0.05000258	          0.05000089	          0.05000148	          0.05000427	          0.05000310	          0.45798074	          0.05001016	          0.05000120	          0.05000321	          0.05000193	          0.05000171	          0.38507924	          0.75893652	          0.05000020	          0.05000089	          0.05000028	          0.36580273	          0.12190389	          0.13424277	          0.11086749	          0.36664026	          0.43533835	          0.32093455	          0.39203581	          0.28852560	          0.45930759	          0.05000004	          0.06938096	          0.20993340	          0.05000039	          0.05000014	          0.08803736	          0.05000007	          0.05000006	          0.05000007	          0.06938021	          0.05000097	          0.05889823	          0.05000048	          0.05000071	          0.05000221	          0.27528910	          0.06938168	          0.30783506	          0.05000842	          0.05000361	          0.10996190	          0.15427900	          0.12839721	          0.16083108	          0.15482384	          0.05001777	          0.05001901	          0.12566833	          0.05890007	          0.09215484	          0.11354233	          0.05000045	          0.05000094	          0.15216463	          0.05000199	          0.05000081	          0.05000050	          0.05001224	          0.05001042	          0.05000689	          0.07298798	          0.05000058	          0.05000023	          0.05000057	          0.09353697	          0.05000715	          0.27344997	          0.05868976	          0.11511937	          0.30359667	          0.57185198	          0.29222941	          0.06367185	          0.07440413	          0.09627452	
          0.01067838	         -2.92986897	         -1.54789385	          3.42375896	          0.01683205	          0.90833640	         -0.00305374	        -15.80395233	          1.68049969	          9.79380007	         28.67328403	          3.44604080	         -1.98347155	        -13.67983176	        -10.94378405	          5.67838543	          7.83606165	          1.64620260	         -0.80945487	         -2.87555714	          2.62488378	         20.68012636	         -6.99501292	         -3.77215192	          0.84634903	         -2.13162051	          3.99236785	        -13.62382182	         19.33995208	         -5.41971401	        -13.45553481	          5.34836827	         34.84099050	         24.96920362	         86.51662706	         86.51662706	          0.31526082	          0.05000024	          0.05000010	          0.45946940	          0.14701980	          0.06117999	          0.05000600	          0.05000070	          0.05000047	          0.05293496	          0.07273395	          0.10890082	          0.05025995	          0.05000214	          0.05000530	          0.05000369	          0.45756416	          0.05893858	          0.05000101	          0.05000202	          0.05000128	          0.05000132	          0.32690004	          0.70321176	          0.05000014	          0.05000059	          0.05000030	          0.34454608	          0.14646640	          0.15151298	          0.12704475	          0.31124685	          0.36956591	          0.27244648	          0.34241156	          0.24493659	          0.38994188	          0.05000003	          0.05889869	          0.17821584	          0.05000021	          0.05000010	          0.07473641	          0.05000009	          0.05000043	          0.06021355	          0.05889864	          0.05889872	          0.05000059	          0.05889885	          0.05889881	          0.05889789	          0.24510594	          0.05889950	          0.27208594	          0.05889872	          0.05000124	          0.13082459	          0.19912683	          0.10899938	          0.13653491	          0.16484615	          0.05000043	          0.07517433	          0.10668425	          0.05000224	          0.11586292	          0.17383167	          0.05286403	          0.05000114	          0.32066930	          0.18588008	          0.10159007	          0.05000019	          0.05000033	          0.05000032	          0.05000029	          0.07296620	          0.05129338	          0.05000019	          0.05337292	          0.08172855	          0.08172826	          0.28492475	          0.07840038	          0.14321135	          0.29243874	          0.59991240	          0.32060847	          0.05405211	          0.06316287	          0.08172902	
          0.02135675	         -2.93010794	         -1.62234743	          3.68452753	          0.03394306	          0.90769808	         -0.00282459	        -15.98855617	          1.34087242	          9.59744464	         28.26954907	          3.73270969	         -1.90411151	        -14.92528022	        -11.70687996	          4.56252069	          7.01046703	          2.53106786	         -0.80419067	         -4.07281375	          2.62441548	         23.71557583	         -6.96127731	         -3.56322041	          1.00906096	         -2.23878494	          3.54474988	        -13.59289852	         19.25416851	         -6.16784311	        -13.45174396	          5.08883864	         36.07737708	         24.51645947	         86.51662706	         86.51662706	          0.26763006	          0.05889709	          0.05889855	          0.39005112	          0.12480762	          0.05879564	          0.05000945	          0.05000149	          0.05000337	          0.05000023	          0.06174579	          0.20572902	          0.11932966	          0.05889954	          0.05889705	          0.05890476	          0.38843595	          0.05003617	          0.05001302	          0.05881672	          0.05889451	          0.05889766	          0.27751073	          0.65623390	          0.05889857	          0.05889844	          0.05000546	          0.29249305	          0.17120541	          0.18018138	          0.14467813	          0.26422244	          0.31373045	          0.23128417	          0.29067872	          0.20793082	          0.33102832	          0.05000004	          0.05000014	          0.15129030	          0.05000012	          0.05000008	          0.06344500	          0.06047492	          0.06395273	          0.06016803	          0.05000008	          0.05000028	          0.13625398	          0.05000026	          0.05000029	          0.05000036	          0.20807446	          0.05000083	          0.23097817	          0.05000020	          0.06938030	          0.11106084	          0.31310372	          0.32138921	          0.22436004	          0.19688894	          0.05000882	          0.06936115	          0.09056648	          0.09852241	          0.14074793	          0.18084716	          0.05000245	          0.06938091	          0.51884394	          0.15779678	          0.08624160	          0.06468087	          0.09334461	          0.10520282	          0.07407212	          0.06938073	          0.06938074	          0.06499507	          0.05000009	          0.06938089	          0.06938080	          0.35330607	          0.12898003	          0.12942281	          0.46084230	          0.63037637	          0.27217005	          0.05000002	          0.05361999	          0.06938109	
          0.03203513	         -2.92865318	         -1.73559994	          3.93069409	          0.05125504	          0.90712565	         -0.00260619	        -16.07506697	          0.96083688	          9.36489017	         27.80866702	          3.95215943	         -1.74775076	        -16.27291013	        -12.71815130	          3.19807051	          6.04218802	          3.41502454	         -0.76575848	         -5.31063178	          2.71926245	         26.89181180	         -6.86854513	         -3.34120061	          1.21383060	         -2.33518159	          3.03191711	        -13.56353916	         19.15114882	         -6.91442927	        -13.47549729	          5.00873999	         37.34794814	         24.04880906	         86.51662706	         86.51662706	          0.24369247	          0.05000014	          0.05000005	          0.33112407	          0.10595140	          0.05000029	          0.05000754	          0.05000070	          0.05000027	          0.05889684	          0.05889974	          0.24304771	          0.10130208	          0.05000144	          0.05000225	          0.05000586	          0.45527353	          0.06937388	          0.05000088	          0.05000126	          0.05000071	          0.05000058	          0.23558346	          0.69704169	          0.05000011	          0.05000038	          0.05000009	          0.24830210	          0.14533912	          0.15295895	          0.12281966	          0.22430265	          0.26633082	          0.19634082	          0.24676184	          0.17651588	          0.28101543	          0.08240242	          0.05000271	          0.12843286	          0.05000028	          0.05000039	          0.05385954	          0.08794580	          0.05429050	          0.05107768	          0.34560670	          0.35378508	          0.40721917	          0.40599028	          0.29657841	          0.25800158	          0.17731331	          0.14074878	          0.20005629	          0.08173228	          0.05889934	          0.09428159	          0.26579935	          0.27283279	          0.19046375	          0.24937411	          0.05000080	          0.05890757	          0.18478968	          0.25280092	          0.22979811	          0.24991650	          0.05889860	          0.05889872	          0.44045505	          0.13395652	          0.12212740	          0.05490865	          0.07924179	          0.08930841	          0.06288105	          0.05889842	          0.05889844	          0.05517535	          0.06937985	          0.05889860	          0.05889856	          0.41473018	          0.10949327	          0.10986972	          0.39121651	          0.78408460	          0.57483875	          0.06970491	          0.09358848	          0.05889874	
